<svg xmlns="http://www.w3.org/2000/svg" viewBox="0 0 1600 900">
<rect width="1600" height="900" fill="#111111"/>
<g stroke="#ffffff" stroke-width="1" opacity="0.08">
<line x1="0" y1="150" x2="1600" y2="150"/>
<line x1="0" y1="300" x2="1600" y2="300"/>
<line x1="0" y1="450" x2="1600" y2="450"/>
<line x1="0" y1="600" x2="1600" y2="600"/>
<line x1="0" y1="750" x2="1600" y2="750"/>
</g>
<polyline points="140,600 340,520 540,640 740,380 940,460 1140,220 1340,320 1500,140" fill="none" stroke="#a3231f" stroke-width="8"/>
<g fill="#ffffff" opacity="0.9">
<rect x="140" y="700" width="90" height="40"/>
<rect x="340" y="700" width="90" height="40"/>
<rect x="540" y="700" width="90" height="40"/>
<rect x="740" y="700" width="90" height="40"/>
<rect x="940" y="700" width="90" height="40"/>
<rect x="1140" y="700" width="90" height="40"/>
<rect x="1340" y="700" width="90" height="40"/>
</g>
</svg>
